<svg width="160" height="23" viewBox="0 0 160 23" fill="none" xmlns="http://www.w3.org/2000/svg">
<g clip-path="url(#clip0_36_26)">
<path d="M93.0848 4.83601L93.2948 1.26601C93.3148 0.949416 93.4526 0.652056 93.6806 0.433314C93.9086 0.214573 94.2101 0.090551 94.5248 0.086013L96.5548 0.0460121C97.1414 0.0393454 97.4548 0.326013 97.4948 0.906013C97.7681 5.10601 97.8214 9.12601 97.6548 12.966C97.5348 15.606 98.7348 17.316 101.255 18.096C101.53 18.1831 101.771 18.3552 101.942 18.5871C102.113 18.8191 102.205 19.0989 102.205 19.386L102.215 21.236C102.221 22.0493 101.825 22.386 101.025 22.246C99.1648 21.9193 97.4281 21.1893 95.8148 20.056C95.5014 19.836 95.1914 19.8393 94.8848 20.066C90.8914 23.006 87.0848 23.186 83.4648 20.606C79.9248 18.096 78.8648 12.826 81.2048 9.16601C83.6914 5.27268 87.3814 4.01935 92.2748 5.40601C92.7814 5.55268 93.0514 5.36268 93.0848 4.83601ZM93.3148 13.626C93.3148 12.4193 92.8354 11.262 91.9821 10.4087C91.1288 9.55539 89.9715 9.07601 88.7648 9.07601C87.558 9.07601 86.4007 9.55539 85.5474 10.4087C84.6942 11.262 84.2148 12.4193 84.2148 13.626C84.2148 14.8327 84.6942 15.9901 85.5474 16.8433C86.4007 17.6966 87.558 18.176 88.7648 18.176C89.9715 18.176 91.1288 17.6966 91.9821 16.8433C92.8354 15.9901 93.3148 14.8327 93.3148 13.626Z" fill="white"/>
<path d="M21.1048 16.5361L21.2448 13.4661C21.2781 12.7728 21.6381 12.3961 22.3248 12.3361L25.0848 12.0861C25.6715 12.0328 25.9681 12.3028 25.9748 12.8961V21.7961C25.9748 22.1495 25.7981 22.3428 25.4448 22.3761C20.0915 22.8561 14.7648 22.8228 9.46478 22.2761C1.26478 21.4461 -2.80522 12.6461 2.16478 5.92613C4.40478 2.90613 7.51478 1.48613 11.3448 1.60613C15.8381 1.7528 20.4748 1.76613 25.2548 1.64613C25.3428 1.64483 25.4301 1.66112 25.5119 1.69408C25.5937 1.72705 25.6683 1.77604 25.7315 1.83825C25.7946 1.90047 25.8451 1.97469 25.8799 2.05669C25.9148 2.13868 25.9335 2.22684 25.9348 2.31613L25.9648 5.85613C25.9715 6.39613 25.7015 6.6728 25.1548 6.68613C20.7081 6.7928 15.8181 6.80613 10.4848 6.72613C9.27813 6.70613 8.23812 7.03613 7.36478 7.71613C2.94478 11.1161 5.36478 17.3561 10.8348 17.3561C14.1681 17.3628 17.3315 17.3428 20.3248 17.2961C20.5275 17.2937 20.7215 17.2135 20.8667 17.072C21.0119 16.9305 21.0971 16.7387 21.1048 16.5361Z" fill="white"/>
<path d="M37.7048 15.496V5.46597C37.7048 5.05263 37.9115 4.84263 38.3248 4.83597L41.2948 4.82597C41.8215 4.8193 42.0848 5.08263 42.0848 5.61597L42.1048 16.336C42.1048 16.6893 42.2481 16.966 42.5348 17.166C44.2415 18.366 44.6948 19.916 43.8948 21.816C43.8559 21.9104 43.7974 21.9955 43.723 22.0657C43.6486 22.136 43.56 22.1898 43.4629 22.2237C43.3658 22.2576 43.2624 22.2709 43.1594 22.2627C43.0564 22.2545 42.956 22.2249 42.8648 22.176C41.0381 21.196 39.3681 21.076 37.8548 21.816C33.9048 23.756 29.4548 20.656 28.9348 16.686C28.5415 13.666 28.4748 10.036 28.7348 5.79597C28.7476 5.53951 28.8586 5.29782 29.0448 5.12097C29.231 4.94411 29.478 4.84565 29.7348 4.84597L32.0148 4.81597C32.1501 4.81465 32.2843 4.83998 32.4097 4.89053C32.5352 4.94108 32.6495 5.01584 32.7461 5.11056C32.8426 5.20528 32.9196 5.31809 32.9726 5.44256C33.0255 5.56702 33.0535 5.7007 33.0548 5.83597L33.1648 15.846C33.1715 16.9393 33.6815 17.7026 34.6948 18.136C35.0215 18.276 35.3615 18.2926 35.7148 18.186C37.0415 17.7793 37.7048 16.8826 37.7048 15.496Z" fill="white"/>
<path d="M61.2748 20.0162C56.4548 23.6062 50.3248 23.2662 47.3048 17.6862C44.6348 12.7562 47.2748 6.95619 52.4648 5.20619C56.2948 3.91619 61.0648 5.78619 62.9348 9.50619C64.1648 11.9562 63.6048 16.8762 66.7948 17.7662C68.4014 18.2129 68.9148 19.5162 68.3348 21.6762C68.2081 22.1495 67.9048 22.3462 67.4248 22.2662C65.3981 21.9062 63.6748 21.1629 62.2548 20.0362C61.9281 19.7829 61.6014 19.7762 61.2748 20.0162ZM59.6448 13.6162C59.6448 12.4095 59.1654 11.2521 58.3121 10.3989C57.4588 9.54556 56.3015 9.06619 55.0948 9.06619C53.888 9.06619 52.7307 9.54556 51.8774 10.3989C51.0241 11.2521 50.5448 12.4095 50.5448 13.6162C50.5448 14.8229 51.0241 15.9802 51.8774 16.8335C52.7307 17.6868 53.888 18.1662 55.0948 18.1662C56.3015 18.1662 57.4588 17.6868 58.3121 16.8335C59.1654 15.9802 59.6448 14.8229 59.6448 13.6162Z" fill="white"/>
<path d="M74.4647 12.3562L73.9947 21.8462C73.968 22.3595 73.7014 22.6128 73.1947 22.6062L70.7347 22.5662C70.2347 22.5595 69.9914 22.3028 70.0047 21.7962C70.078 19.8028 70.0614 17.7462 69.9547 15.6262C69.6747 10.1362 72.1247 6.02616 77.8347 4.80616C78.4414 4.67949 78.7414 4.92616 78.7347 5.54616L78.7247 7.97616C78.7247 8.56949 78.4447 8.96949 77.8847 9.17616C76.8247 9.56949 75.858 10.2295 74.9847 11.1562C74.6747 11.479 74.4903 11.9046 74.4647 12.3562Z" fill="white"/>
<path d="M118.905 20.0564C116.098 22.223 113.315 22.9064 110.555 22.1064C105.545 20.6564 102.735 15.2664 104.735 10.3564C107.415 3.77635 116.745 2.68635 120.425 9.09635C121.555 11.0564 121.775 13.5764 122.195 15.7564C122.229 15.9269 122.298 16.0884 122.396 16.2311C122.494 16.3737 122.619 16.4946 122.765 16.5864L125.925 18.6164C126.151 18.763 126.258 18.9697 126.245 19.2364L126.115 21.8064C126.109 21.9006 126.084 21.9926 126.04 22.076C125.996 22.1593 125.935 22.2321 125.861 22.2892C125.787 22.3463 125.701 22.3864 125.61 22.4066C125.519 22.4268 125.425 22.4267 125.335 22.4064C123.355 21.9864 121.578 21.1997 120.005 20.0464C119.631 19.773 119.265 19.7764 118.905 20.0564ZM117.415 13.6264C117.415 12.4223 116.936 11.2675 116.085 10.4161C115.234 9.56467 114.079 9.08635 112.875 9.08635C111.671 9.08635 110.516 9.56467 109.664 10.4161C108.813 11.2675 108.335 12.4223 108.335 13.6264C108.335 14.8304 108.813 15.9852 109.664 16.8366C110.516 17.688 111.671 18.1664 112.875 18.1664C114.079 18.1664 115.234 17.688 116.085 16.8366C116.936 15.9852 117.415 14.8304 117.415 13.6264Z" fill="white"/>
<path d="M137.355 9.14597C137.108 9.0993 136.868 9.10263 136.635 9.15597C135.188 9.4893 134.455 10.396 134.435 11.876L134.325 21.336C134.322 21.5133 134.285 21.6883 134.214 21.8511C134.144 22.0139 134.042 22.1612 133.915 22.2847C133.788 22.4083 133.638 22.5055 133.473 22.5709C133.308 22.6363 133.132 22.6686 132.955 22.666L131.565 22.646C130.665 22.6393 130.215 22.1826 130.215 21.276C130.215 18.136 130.115 14.6226 129.915 10.736C129.868 9.9093 129.448 9.38597 128.655 9.16597C128.195 9.04597 127.971 8.74597 127.985 8.26597L128.035 5.65597C128.048 5.07597 128.335 4.86263 128.895 5.01597L131.925 5.82597C132.331 5.9393 132.731 5.90597 133.125 5.72597C135.625 4.59263 138.078 4.6193 140.485 5.80597C140.998 6.0593 141.508 6.05597 142.015 5.79597C146.175 3.72597 151.255 5.27597 152.065 10.126C152.578 13.1593 152.585 17.1426 152.085 22.076C152.072 22.2174 152.006 22.3488 151.9 22.4434C151.795 22.5381 151.657 22.5891 151.515 22.586L148.985 22.546C148.665 22.5393 148.498 22.376 148.485 22.056L148.025 11.006C148.014 10.747 147.95 10.493 147.838 10.259C147.726 10.025 147.568 9.81597 147.373 9.64424C147.178 9.47252 146.95 9.34166 146.703 9.25949C146.456 9.17732 146.194 9.14551 145.935 9.16597L145.585 9.18597C144.045 9.31263 143.268 10.1493 143.255 11.696L143.205 21.496C143.198 22.2626 142.811 22.6526 142.045 22.666L140.765 22.686C139.851 22.6993 139.385 22.2493 139.365 21.336L139.135 11.266C139.108 10.086 138.515 9.3793 137.355 9.14597Z" fill="white"/>
<path d="M159.235 9.57608V22.0061C158.215 22.6594 156.941 22.8027 155.415 22.4361C155.061 22.3494 154.888 22.1261 154.895 21.7661L154.975 10.0261C154.975 9.62607 155.171 9.38608 155.565 9.30608C156.871 9.03274 158.095 9.12274 159.235 9.57608Z" fill="white"/>
</g>
<defs>
<clipPath id="clip0_36_26">
<rect width="160" height="23" fill="white"/>
</clipPath>
</defs>
</svg>
