<svg width="61" height="19" viewBox="0 0 61 19" fill="none" xmlns="http://www.w3.org/2000/svg">
<g clip-path="url(#clip0_53_39)">
<path d="M44.9105 1.58036L45.1705 0.63036C45.2705 0.27036 45.5105 0.0836935 45.8905 0.0703601L48.9605 0.000360452C49.1746 -0.00587347 49.3831 0.0689455 49.5444 0.209854C49.7057 0.350763 49.8079 0.547373 49.8305 0.760361C49.8638 1.13369 49.9672 1.47703 50.1405 1.79036C50.3138 2.09703 50.5772 2.25703 50.9305 2.27036L60.0305 2.54036C60.2572 2.54703 60.3672 2.66703 60.3605 2.90036L60.2205 6.36036C60.2179 6.44083 60.1841 6.51714 60.1262 6.57313C60.0684 6.62912 59.991 6.6604 59.9105 6.66036L0.77049 6.67036C0.243824 6.67036 -0.0128395 6.40703 0.000493833 5.88036L0.080488 3.16036C0.0938214 2.62036 0.373825 2.34703 0.920492 2.34036L9.17049 2.26036C9.55049 2.25369 9.83049 2.08703 10.0105 1.76036C10.1705 1.46703 10.2505 1.14703 10.2505 0.80036C10.2505 0.32036 10.4938 0.0736933 10.9805 0.0603599L14.4505 0.000360452C14.524 -0.00154637 14.5971 0.0124665 14.6649 0.0414753C14.7327 0.070484 14.7936 0.113828 14.8437 0.168644C14.8938 0.22346 14.9319 0.288503 14.9555 0.359474C14.979 0.430445 14.9876 0.505731 14.9805 0.58036C14.9405 0.927027 14.9972 1.25703 15.1505 1.57036C15.3038 1.89036 15.5605 2.05703 15.9205 2.07036C25.1605 2.47036 34.6272 2.46369 44.3205 2.05036C44.4571 2.04459 44.5882 1.99583 44.6944 1.91124C44.8006 1.82666 44.8763 1.71069 44.9105 1.58036Z" fill="#272C3E"/>
<path d="M44.7604 9.79016L15.4304 9.83016C15.3419 9.83012 15.2569 9.86457 15.1934 9.92618C15.13 9.9878 15.093 10.0717 15.0904 10.1602L14.9304 17.6302C14.9279 17.7169 14.8923 17.7994 14.831 17.8607C14.7696 17.9221 14.6871 17.9576 14.6004 17.9602L10.8204 18.1202C10.7757 18.1215 10.7313 18.114 10.6895 18.0981C10.6477 18.0823 10.6095 18.0583 10.577 18.0277C10.5445 17.997 10.5184 17.9603 10.5001 17.9195C10.4818 17.8788 10.4717 17.8348 10.4704 17.7902L10.4304 10.1702C10.4304 10.1255 10.4216 10.0813 10.4045 10.04C10.3874 9.99879 10.3624 9.96131 10.3308 9.92974C10.2992 9.89817 10.2618 9.87313 10.2205 9.85604C10.1793 9.83895 10.135 9.83016 10.0904 9.83016L0.490393 9.76016C0.40674 9.76074 0.32581 9.73046 0.263083 9.67511C0.200355 9.61976 0.160229 9.54323 0.150389 9.46016L0.0403884 8.28016C0.0362153 8.23305 0.0419193 8.18559 0.0571273 8.14082C0.0723353 8.09604 0.096716 8.05493 0.128714 8.0201C0.160712 7.98528 0.199621 7.95752 0.242956 7.93859C0.286292 7.91966 0.333102 7.90997 0.380392 7.91016L59.9404 8.02016C59.9868 8.02134 60.0325 8.03203 60.0747 8.05157C60.1168 8.0711 60.1545 8.09907 60.1855 8.13374C60.2164 8.16841 60.2399 8.20905 60.2545 8.25315C60.2691 8.29726 60.2745 8.34388 60.2704 8.39016L60.1704 9.43016C60.1608 9.51154 60.1221 9.5867 60.0614 9.64182C60.0008 9.69695 59.9223 9.72832 59.8404 9.73016L50.3904 9.88016C50.3053 9.88252 50.2242 9.91669 50.1631 9.97594C50.102 10.0352 50.0654 10.1152 50.0604 10.2002L49.7404 17.5902C49.7356 17.6735 49.7004 17.7521 49.6414 17.8111C49.5824 17.8701 49.5037 17.9054 49.4204 17.9102L45.8904 18.0702C45.8019 18.0729 45.7158 18.041 45.6504 17.9813C45.585 17.9215 45.5456 17.8386 45.5404 17.7502L45.1004 10.1102C45.0953 10.0235 45.0572 9.94207 44.994 9.88257C44.9308 9.82307 44.8472 9.79001 44.7604 9.79016Z" fill="#272C3E"/>
</g>
<defs>
<clipPath id="clip0_53_39">
<rect width="61" height="19" fill="white"/>
</clipPath>
</defs>
</svg>
